<?xml version="1.0" encoding="UTF-8"?>
<svg id="TXT" xmlns="http://www.w3.org/2000/svg" version="1.1" xmlns:xlink="http://www.w3.org/1999/xlink" viewBox="0 0 642.58 99.59">
  <!-- Generator: Adobe Illustrator 30.0.0, SVG Export Plug-In . SVG Version: 2.1.1 Build 123)  -->
  <defs>
    <style>
      .st0 {
        fill: url(#New_Gradient_Swatch_35);
      }

      .st1 {
        fill: url(#New_Gradient_Swatch_34);
      }

      .st2, .st3 {
        fill: #1ed760;
      }

      .st4 {
        fill: url(#linear-gradient1);
      }

      .st5 {
        fill: url(#New_Gradient_Swatch_36);
      }

      .st6 {
        fill: url(#New_Gradient_Swatch_33);
      }

      .st6, .st7, .st8, .st9, .st10, .st11 {
        display: none;
      }

      .st7 {
        fill: url(#New_Gradient_Swatch_32);
      }

      .st12, .st9 {
        fill: #280246;
      }

      .st13 {
        fill: url(#New_Gradient_Swatch_3);
      }

      .st8 {
        fill: url(#New_Gradient_Swatch_37);
      }

      .st14 {
        fill: url(#New_Gradient_Swatch);
      }

      .st15 {
        fill: url(#New_Gradient_Swatch_31);
      }

      .st3 {
        font-family: BrandonGrotesque-Black, 'Brandon Grotesque';
        font-size: 109.57px;
        font-weight: 800;
      }

      .st16 {
        fill: url(#linear-gradient);
      }

      .st11 {
        fill: url(#New_Gradient_Swatch_38);
      }

      .st17 {
        fill: url(#New_Gradient_Swatch_39);
      }
    </style>
    <linearGradient id="New_Gradient_Swatch_3" data-name="New Gradient Swatch 3" x1="439.3" y1="49.03" x2="659.21" y2="49.03" gradientUnits="userSpaceOnUse">
      <stop offset="0" stop-color="#bfffc7"/>
      <stop offset=".09" stop-color="#acfaca"/>
      <stop offset="1" stop-color="#00cce9"/>
    </linearGradient>
    <linearGradient id="linear-gradient" x1="16.62" y1="60.15" x2="416.99" y2="60.15" gradientUnits="userSpaceOnUse">
      <stop offset="0" stop-color="#00cce9"/>
      <stop offset="1" stop-color="#bfffc7"/>
    </linearGradient>
    <linearGradient id="linear-gradient1" x1="16.62" y1="60.15" x2="405.52" y2="60.15" gradientUnits="userSpaceOnUse">
      <stop offset="0" stop-color="#1ed760"/>
      <stop offset="1" stop-color="#bfffc7"/>
    </linearGradient>
    <linearGradient id="New_Gradient_Swatch_31" data-name="New Gradient Swatch 3" x1="422.67" x2="642.58" xlink:href="#New_Gradient_Swatch_3"/>
    <linearGradient id="New_Gradient_Swatch" data-name="New Gradient Swatch" x1="0" y1="60.15" x2="388.89" y2="60.15" gradientUnits="userSpaceOnUse">
      <stop offset="0" stop-color="#1ed760"/>
      <stop offset="1" stop-color="#bfffc7"/>
    </linearGradient>
    <linearGradient id="New_Gradient_Swatch_32" data-name="New Gradient Swatch 3" x1="101.43" y1="63.16" x2="118.09" y2="63.16" xlink:href="#New_Gradient_Swatch_3"/>
    <linearGradient id="New_Gradient_Swatch_33" data-name="New Gradient Swatch 3" x1="331.96" y1="63.16" x2="348.62" y2="63.16" xlink:href="#New_Gradient_Swatch_3"/>
    <linearGradient id="New_Gradient_Swatch_34" data-name="New Gradient Swatch 3" x1="327.67" y1="257.42" x2="422.67" y2="257.42" xlink:href="#New_Gradient_Swatch_3"/>
    <linearGradient id="New_Gradient_Swatch_35" data-name="New Gradient Swatch 3" x1="327.67" y1="257.42" x2="422.67" y2="257.42" xlink:href="#New_Gradient_Swatch_3"/>
    <linearGradient id="New_Gradient_Swatch_36" data-name="New Gradient Swatch 3" x1="327.67" y1="257.42" x2="422.67" y2="257.42" xlink:href="#New_Gradient_Swatch_3"/>
    <linearGradient id="New_Gradient_Swatch_37" data-name="New Gradient Swatch 3" x1="618.64" y1="257.42" x2="713.64" y2="257.42" xlink:href="#New_Gradient_Swatch_3"/>
    <linearGradient id="New_Gradient_Swatch_38" data-name="New Gradient Swatch 3" x1="466.88" y1="257.42" x2="561.88" y2="257.42" xlink:href="#New_Gradient_Swatch_3"/>
    <linearGradient id="New_Gradient_Swatch_39" data-name="New Gradient Swatch 3" x1="490.6" y1="257.42" x2="543.13" y2="257.42" xlink:href="#New_Gradient_Swatch_3"/>
  </defs>
  <g id="logo_cosi_orig" class="st10">
    <circle class="st12" cx="549.25" cy="59.6" r="141.73"/>
    <path class="st13" d="M477.77,15.61l-15.81-15.61h31.62l-15.81,15.61ZM638.57,22.55v74.1h20.64V22.55h-20.64ZM603.23,43.09c0-1.5,1.31-3.19,3.94-3.19,1.31,0,6.75.56,11.63,3.94l12.19-14.63c-7.13-6.19-17.82-8.07-25.14-8.07-11.82,0-23.64,8.25-23.64,23.08,0,23.45,28.52,24.95,28.52,32.65,0,1.69-1.31,3.38-4.5,3.38-1.88,0-7.69-.75-15.76-5.82l-11.26,14.45c4.5,4.69,16.7,9.19,25.89,9.19,15.76,0,27.77-9,27.77-23.26,0-22.14-29.64-24.39-29.64-31.71ZM512.86,32.41c-11.04,11.04-11.63,29.96-22.68,41.01-3.11,3.11-7.4,5-12.42,5-10.51,0-17.82-8.25-17.82-18.76,0-18.85,21.26-24.08,30.89-13.1l12.81-15.38c-15.09-13.76-38.49-13.35-53.08,1.24-15.02,15.02-15.02,39.36,0,54.38,15.02,15.02,39.36,15.02,54.38,0,13.6-13.6,12.77-31.1,22.68-41.01,3.11-3.11,7.4-5,12.42-5,10.51,0,17.82,8.25,17.82,18.76,0,18.67-20.84,23.98-30.6,13.42h0s-12.33,15.75-12.33,15.75c15.11,13.06,37.96,12.42,52.31-1.93,15.02-15.02,15.02-39.36,0-54.38-15.02-15.02-39.36-15.02-54.38,0Z"/>
  </g>
  <g class="st10">
    <g id="logo_cosi_orig1" data-name="logo_cosi_orig">
      <rect class="st12" x="-48.4" y="-82.14" width="739.38" height="283.46"/>
      <circle class="st12" cx="549.25" cy="59.6" r="141.73"/>
      <path class="st13" d="M477.77,15.61l-15.81-15.61h31.62l-15.81,15.61ZM638.57,22.55v74.1h20.64V22.55h-20.64ZM603.23,43.09c0-1.5,1.31-3.19,3.94-3.19,1.31,0,6.75.56,11.63,3.94l12.19-14.63c-7.13-6.19-17.82-8.07-25.14-8.07-11.82,0-23.64,8.25-23.64,23.08,0,23.45,28.52,24.95,28.52,32.65,0,1.69-1.31,3.38-4.5,3.38-1.88,0-7.69-.75-15.76-5.82l-11.26,14.45c4.5,4.69,16.7,9.19,25.89,9.19,15.76,0,27.77-9,27.77-23.26,0-22.14-29.64-24.39-29.64-31.71ZM512.86,32.41c-11.04,11.04-11.63,29.96-22.68,41.01-3.11,3.11-7.4,5-12.42,5-10.51,0-17.82-8.25-17.82-18.76,0-18.85,21.26-24.08,30.89-13.1l12.81-15.38c-15.09-13.76-38.49-13.35-53.08,1.24-15.02,15.02-15.02,39.36,0,54.38,15.02,15.02,39.36,15.02,54.38,0,13.6-13.6,12.77-31.1,22.68-41.01,3.11-3.11,7.4-5,12.42-5,10.51,0,17.82,8.25,17.82,18.76,0,18.67-20.84,23.98-30.6,13.42h0s-12.33,15.75-12.33,15.75c15.11,13.06,37.96,12.42,52.31-1.93,15.02-15.02,15.02-39.36,0-54.38-15.02-15.02-39.36-15.02-54.38,0Z"/>
    </g>
    <g>
      <text class="st3" transform="translate(14.1 98.5)"><tspan x="0" y="0">ZAHRAJ</tspan></text>
      <g>
        <path class="st16" d="M16.62,94.44l29.15-56.32v-.22h-23.89c-1.1,0-2.08-.99-2.08-2.08v-11.94c0-1.1.99-2.08,2.08-2.08h46.57c1.1,0,2.08.99,2.08,2.08v1.42l-28.16,56.87v.22h23.89c1.21,0,2.08.99,2.08,2.08v11.94c0,1.1-.88,2.08-2.08,2.08H18.7c-1.1,0-2.08-.99-2.08-2.08v-1.97Z"/>
        <path class="st16" d="M73.05,95.65L107.35,21.91c.33-.66,1.1-1.21,1.86-1.21h1.1c.77,0,1.53.55,1.86,1.21l34.3,73.74c.66,1.42-.22,2.85-1.86,2.85h-12.16c-1.97,0-2.85-.66-3.83-2.74l-3.94-8.66h-29.8l-3.95,8.77c-.55,1.31-1.75,2.63-3.94,2.63h-12.05c-1.64,0-2.52-1.42-1.86-2.85ZM118.09,72.2l-8.33-18.08h-.11l-8.22,18.08h16.66Z"/>
        <path class="st16" d="M155.45,23.88c0-1.1.99-2.08,2.08-2.08h13.04c1.21,0,2.08.99,2.08,2.08v27.61h31.34v-27.61c0-1.1.88-2.08,2.08-2.08h13.04c1.1,0,2.08.99,2.08,2.08v72.54c0,1.1-.99,2.08-2.08,2.08h-13.04c-1.21,0-2.08-.99-2.08-2.08v-28.82h-31.34v28.82c0,1.1-.88,2.08-2.08,2.08h-13.04c-1.1,0-2.08-.99-2.08-2.08V23.88Z"/>
        <path class="st16" d="M240.03,23.88c0-1.1.88-2.08,2.08-2.08h32.76c13.15,0,23.89,10.63,23.89,23.67,0,10.08-6.68,18.19-16.22,22.02l15.01,27.83c.77,1.42,0,3.18-1.86,3.18h-14.57c-.88,0-1.53-.55-1.75-.99l-14.57-29.04h-7.56v27.94c0,1.1-.99,2.08-2.08,2.08h-13.04c-1.21,0-2.08-.99-2.08-2.08V23.88ZM273.45,54.56c4.49,0,8.33-4.16,8.33-8.77s-3.83-8.33-8.33-8.33h-16.22v17.09h16.22Z"/>
        <path class="st16" d="M303.58,95.65l34.3-73.74c.33-.66,1.1-1.21,1.86-1.21h1.1c.77,0,1.53.55,1.86,1.21l34.3,73.74c.66,1.42-.22,2.85-1.86,2.85h-12.16c-1.97,0-2.85-.66-3.83-2.74l-3.94-8.66h-29.8l-3.95,8.77c-.55,1.31-1.75,2.63-3.94,2.63h-12.05c-1.64,0-2.52-1.42-1.86-2.85ZM348.62,72.2l-8.33-18.08h-.11l-8.22,18.08h16.66Z"/>
        <path class="st16" d="M376.99,88.86l7.45-7.34c.88-.77,2.08-.88,2.96,0,1.31,1.31,2.63,2.3,5.59,2.3s6.46-2.85,6.46-8.33V23.88c0-1.1.88-2.08,2.08-2.08h13.37c1.21,0,2.08.99,2.08,2.08v51.72c0,15.23-10.74,24-23.56,24-9.53,0-14.79-5.7-16.66-8-.55-.88-.44-1.97.22-2.74Z"/>
      </g>
    </g>
  </g>
  <g class="st10">
    <g id="logo_cosi_orig2" data-name="logo_cosi_orig">
      <rect x="-48.4" y="-82.14" width="739.38" height="283.46"/>
      <circle class="st9" cx="549.25" cy="59.6" r="141.73"/>
      <path class="st13" d="M477.77,15.61l-15.81-15.61h31.62l-15.81,15.61ZM638.57,22.55v74.1h20.64V22.55h-20.64ZM603.23,43.09c0-1.5,1.31-3.19,3.94-3.19,1.31,0,6.75.56,11.63,3.94l12.19-14.63c-7.13-6.19-17.82-8.07-25.14-8.07-11.82,0-23.64,8.25-23.64,23.08,0,23.45,28.52,24.95,28.52,32.65,0,1.69-1.31,3.38-4.5,3.38-1.88,0-7.69-.75-15.76-5.82l-11.26,14.45c4.5,4.69,16.7,9.19,25.89,9.19,15.76,0,27.77-9,27.77-23.26,0-22.14-29.64-24.39-29.64-31.71ZM512.86,32.41c-11.04,11.04-11.63,29.96-22.68,41.01-3.11,3.11-7.4,5-12.42,5-10.51,0-17.82-8.25-17.82-18.76,0-18.85,21.26-24.08,30.89-13.1l12.81-15.38c-15.09-13.76-38.49-13.35-53.08,1.24-15.02,15.02-15.02,39.36,0,54.38,15.02,15.02,39.36,15.02,54.38,0,13.6-13.6,12.77-31.1,22.68-41.01,3.11-3.11,7.4-5,12.42-5,10.51,0,17.82,8.25,17.82,18.76,0,18.67-20.84,23.98-30.6,13.42h0s-12.33,15.75-12.33,15.75c15.11,13.06,37.96,12.42,52.31-1.93,15.02-15.02,15.02-39.36,0-54.38-15.02-15.02-39.36-15.02-54.38,0Z"/>
    </g>
    <g>
      <text class="st3" transform="translate(14.1 98.5)"><tspan x="0" y="0">ZAHRAJ</tspan></text>
      <g>
        <path class="st4" d="M16.62,94.44l29.15-56.32v-.22h-23.89c-1.1,0-2.08-.99-2.08-2.08v-11.94c0-1.1.99-2.08,2.08-2.08h46.57c1.1,0,2.08.99,2.08,2.08v1.42l-28.16,56.87v.22h23.89c1.21,0,2.08.99,2.08,2.08v11.94c0,1.1-.88,2.08-2.08,2.08H18.7c-1.1,0-2.08-.99-2.08-2.08v-1.97Z"/>
        <path class="st4" d="M72.94,95.65L107.24,21.91c.33-.66,1.1-1.21,1.86-1.21h1.1c.77,0,1.53.55,1.86,1.21l34.3,73.74c.66,1.42-.22,2.85-1.86,2.85h-12.16c-1.97,0-2.85-.66-3.83-2.74l-3.94-8.66h-29.8l-3.95,8.77c-.55,1.31-1.75,2.63-3.94,2.63h-12.05c-1.64,0-2.52-1.42-1.86-2.85ZM117.98,72.2l-8.33-18.08h-.11l-8.22,18.08h16.66Z"/>
        <path class="st4" d="M152.88,23.88c0-1.1.99-2.08,2.08-2.08h13.04c1.21,0,2.08.99,2.08,2.08v27.61h31.34v-27.61c0-1.1.88-2.08,2.08-2.08h13.04c1.1,0,2.08.99,2.08,2.08v72.54c0,1.1-.99,2.08-2.08,2.08h-13.04c-1.21,0-2.08-.99-2.08-2.08v-28.82h-31.34v28.82c0,1.1-.88,2.08-2.08,2.08h-13.04c-1.1,0-2.08-.99-2.08-2.08V23.88Z"/>
        <path class="st4" d="M227.94,23.88c0-1.1.88-2.08,2.08-2.08h32.76c13.15,0,23.89,10.63,23.89,23.67,0,10.08-6.68,18.19-16.22,22.02l15.01,27.83c.77,1.42,0,3.18-1.86,3.18h-14.57c-.88,0-1.53-.55-1.75-.99l-14.57-29.04h-7.56v27.94c0,1.1-.99,2.08-2.08,2.08h-13.04c-1.21,0-2.08-.99-2.08-2.08V23.88ZM261.36,54.56c4.49,0,8.33-4.16,8.33-8.77s-3.83-8.33-8.33-8.33h-16.22v17.09h16.22Z"/>
        <path class="st4" d="M290.9,95.65l34.3-73.74c.33-.66,1.1-1.21,1.86-1.21h1.1c.77,0,1.53.55,1.86,1.21l34.3,73.74c.66,1.42-.22,2.85-1.86,2.85h-12.16c-1.97,0-2.85-.66-3.83-2.74l-3.94-8.66h-29.8l-3.95,8.77c-.55,1.31-1.75,2.63-3.94,2.63h-12.05c-1.64,0-2.52-1.42-1.86-2.85ZM335.93,72.2l-8.33-18.08h-.11l-8.22,18.08h16.66Z"/>
        <path class="st4" d="M365.52,88.86l7.45-7.34c.88-.77,2.08-.88,2.96,0,1.31,1.31,2.63,2.3,5.59,2.3s6.46-2.85,6.46-8.33V23.88c0-1.1.88-2.08,2.08-2.08h13.37c1.21,0,2.08.99,2.08,2.08v51.72c0,15.23-10.74,24-23.56,24-9.53,0-14.79-5.7-16.66-8-.55-.88-.44-1.97.22-2.74Z"/>
      </g>
    </g>
  </g>
  <g>
    <g id="logo_cosi_orig3" data-name="logo_cosi_orig">
      <path class="st15" d="M461.14,15.61l-15.81-15.61h31.62l-15.81,15.61ZM621.95,22.55v74.1h20.64V22.55h-20.64ZM586.6,43.09c0-1.5,1.31-3.19,3.94-3.19,1.31,0,6.75.56,11.63,3.94l12.19-14.63c-7.13-6.19-17.82-8.07-25.14-8.07-11.82,0-23.64,8.25-23.64,23.08,0,23.45,28.52,24.95,28.52,32.65,0,1.69-1.31,3.38-4.5,3.38-1.88,0-7.69-.75-15.76-5.82l-11.26,14.45c4.5,4.69,16.7,9.19,25.89,9.19,15.76,0,27.77-9,27.77-23.26,0-22.14-29.64-24.39-29.64-31.71ZM496.24,32.41c-11.04,11.04-11.63,29.96-22.68,41.01-3.11,3.11-7.4,5-12.42,5-10.51,0-17.82-8.25-17.82-18.76,0-18.85,21.26-24.08,30.89-13.1l12.81-15.38c-15.09-13.76-38.49-13.35-53.08,1.24-15.02,15.02-15.02,39.36,0,54.38,15.02,15.02,39.36,15.02,54.38,0,13.6-13.6,12.77-31.1,22.68-41.01,3.11-3.11,7.4-5,12.42-5,10.51,0,17.82,8.25,17.82,18.76,0,18.67-20.84,23.98-30.6,13.42h0s-12.33,15.75-12.33,15.75c15.11,13.06,37.96,12.42,52.31-1.93,15.02-15.02,15.02-39.36,0-54.38-15.02-15.02-39.36-15.02-54.38,0Z"/>
    </g>
    <g>
      <g>
        <path class="st2" d="M0,94.44l29.15-56.32v-.22H5.26c-1.1,0-2.08-.99-2.08-2.08v-11.94c0-1.1.99-2.08,2.08-2.08h46.57c1.1,0,2.08.99,2.08,2.08v1.42l-28.16,56.87v.22h23.89c1.21,0,2.08.99,2.08,2.08v11.94c0,1.1-.88,2.08-2.08,2.08H2.08c-1.1,0-2.08-.99-2.08-2.08v-1.97Z"/>
        <path class="st2" d="M56.32,95.65L90.61,21.91c.33-.66,1.1-1.21,1.86-1.21h1.1c.77,0,1.53.55,1.86,1.21l34.3,73.74c.66,1.42-.22,2.85-1.86,2.85h-12.16c-1.97,0-2.85-.66-3.83-2.74l-3.94-8.66h-29.8l-3.95,8.77c-.55,1.31-1.75,2.63-3.94,2.63h-12.05c-1.64,0-2.52-1.42-1.86-2.85ZM101.35,72.2l-8.33-18.08h-.11l-8.22,18.08h16.66Z"/>
        <path class="st2" d="M136.26,23.88c0-1.1.99-2.08,2.08-2.08h13.04c1.21,0,2.08.99,2.08,2.08v27.61h31.34v-27.61c0-1.1.88-2.08,2.08-2.08h13.04c1.1,0,2.08.99,2.08,2.08v72.54c0,1.1-.99,2.08-2.08,2.08h-13.04c-1.21,0-2.08-.99-2.08-2.08v-28.82h-31.34v28.82c0,1.1-.88,2.08-2.08,2.08h-13.04c-1.1,0-2.08-.99-2.08-2.08V23.88Z"/>
        <path class="st2" d="M211.31,23.88c0-1.1.88-2.08,2.08-2.08h32.76c13.15,0,23.89,10.63,23.89,23.67,0,10.08-6.68,18.19-16.22,22.02l15.01,27.83c.77,1.42,0,3.18-1.86,3.18h-14.57c-.88,0-1.53-.55-1.75-.99l-14.57-29.04h-7.56v27.94c0,1.1-.99,2.08-2.08,2.08h-13.04c-1.21,0-2.08-.99-2.08-2.08V23.88ZM244.73,54.56c4.49,0,8.33-4.16,8.33-8.77s-3.83-8.33-8.33-8.33h-16.22v17.09h16.22Z"/>
        <path class="st2" d="M274.27,95.65l34.3-73.74c.33-.66,1.1-1.21,1.86-1.21h1.1c.77,0,1.53.55,1.86,1.21l34.3,73.74c.66,1.42-.22,2.85-1.86,2.85h-12.16c-1.97,0-2.85-.66-3.83-2.74l-3.94-8.66h-29.8l-3.95,8.77c-.55,1.31-1.75,2.63-3.94,2.63h-12.05c-1.64,0-2.52-1.42-1.86-2.85ZM319.31,72.2l-8.33-18.08h-.11l-8.22,18.08h16.66Z"/>
        <path class="st2" d="M348.9,88.86l7.45-7.34c.88-.77,2.08-.88,2.96,0,1.31,1.31,2.63,2.3,5.59,2.3s6.46-2.85,6.46-8.33V23.88c0-1.1.88-2.08,2.08-2.08h13.37c1.21,0,2.08.99,2.08,2.08v51.72c0,15.23-10.74,24-23.56,24-9.53,0-14.79-5.7-16.66-8-.55-.88-.44-1.97.22-2.74Z"/>
      </g>
      <g>
        <path class="st14" d="M0,94.44l29.15-56.32v-.22H5.26c-1.1,0-2.08-.99-2.08-2.08v-11.94c0-1.1.99-2.08,2.08-2.08h46.57c1.1,0,2.08.99,2.08,2.08v1.42l-28.16,56.87v.22h23.89c1.21,0,2.08.99,2.08,2.08v11.94c0,1.1-.88,2.08-2.08,2.08H2.08c-1.1,0-2.08-.99-2.08-2.08v-1.97Z"/>
        <path class="st14" d="M56.32,95.65L90.61,21.91c.33-.66,1.1-1.21,1.86-1.21h1.1c.77,0,1.53.55,1.86,1.21l34.3,73.74c.66,1.42-.22,2.85-1.86,2.85h-12.16c-1.97,0-2.85-.66-3.83-2.74l-3.94-8.66h-29.8l-3.95,8.77c-.55,1.31-1.75,2.63-3.94,2.63h-12.05c-1.64,0-2.52-1.42-1.86-2.85ZM101.35,72.2l-8.33-18.08h-.11l-8.22,18.08h16.66Z"/>
        <path class="st14" d="M136.26,23.88c0-1.1.99-2.08,2.08-2.08h13.04c1.21,0,2.08.99,2.08,2.08v27.61h31.34v-27.61c0-1.1.88-2.08,2.08-2.08h13.04c1.1,0,2.08.99,2.08,2.08v72.54c0,1.1-.99,2.08-2.08,2.08h-13.04c-1.21,0-2.08-.99-2.08-2.08v-28.82h-31.34v28.82c0,1.1-.88,2.08-2.08,2.08h-13.04c-1.1,0-2.08-.99-2.08-2.08V23.88Z"/>
        <path class="st14" d="M211.31,23.88c0-1.1.88-2.08,2.08-2.08h32.76c13.15,0,23.89,10.63,23.89,23.67,0,10.08-6.68,18.19-16.22,22.02l15.01,27.83c.77,1.42,0,3.18-1.86,3.18h-14.57c-.88,0-1.53-.55-1.75-.99l-14.57-29.04h-7.56v27.94c0,1.1-.99,2.08-2.08,2.08h-13.04c-1.21,0-2.08-.99-2.08-2.08V23.88ZM244.73,54.56c4.49,0,8.33-4.16,8.33-8.77s-3.83-8.33-8.33-8.33h-16.22v17.09h16.22Z"/>
        <path class="st14" d="M274.27,95.65l34.3-73.74c.33-.66,1.1-1.21,1.86-1.21h1.1c.77,0,1.53.55,1.86,1.21l34.3,73.74c.66,1.42-.22,2.85-1.86,2.85h-12.16c-1.97,0-2.85-.66-3.83-2.74l-3.94-8.66h-29.8l-3.95,8.77c-.55,1.31-1.75,2.63-3.94,2.63h-12.05c-1.64,0-2.52-1.42-1.86-2.85ZM319.31,72.2l-8.33-18.08h-.11l-8.22,18.08h16.66Z"/>
        <path class="st14" d="M348.9,88.86l7.45-7.34c.88-.77,2.08-.88,2.96,0,1.31,1.31,2.63,2.3,5.59,2.3s6.46-2.85,6.46-8.33V23.88c0-1.1.88-2.08,2.08-2.08h13.37c1.21,0,2.08.99,2.08,2.08v51.72c0,15.23-10.74,24-23.56,24-9.53,0-14.79-5.7-16.66-8-.55-.88-.44-1.97.22-2.74Z"/>
      </g>
    </g>
  </g>
  <polygon class="st7" points="109.65 54.12 101.43 72.2 118.09 72.2 109.65 54.12"/>
  <polygon class="st6" points="340.18 54.12 331.96 72.2 348.62 72.2 340.29 54.12 340.18 54.12"/>
  <g class="st10">
    <path class="st1" d="M375.17,209.92c-26.2,0-47.5,21.3-47.5,47.5s21.3,47.5,47.5,47.5,47.5-21.3,47.5-47.5-21.3-47.5-47.5-47.5ZM390.47,259.82l-22.4,14.9c-1.9,1.3-4.5-.1-4.5-2.4v-29.8c0-2.3,2.6-3.7,4.5-2.4l22.4,14.9c1.7,1.1,1.7,3.7,0,4.8Z"/>
  </g>
  <g class="st10">
    <path class="st0" d="M375.17,209.92c-26.2,0-47.5,21.3-47.5,47.5s21.3,47.5,47.5,47.5,47.5-21.3,47.5-47.5-21.3-47.5-47.5-47.5ZM390.47,259.82l-22.4,14.9c-1.9,1.3-4.5-.1-4.5-2.4v-29.8c0-2.3,2.6-3.7,4.5-2.4l22.4,14.9c1.7,1.1,1.7,3.7,0,4.8Z"/>
  </g>
  <g class="st10">
    <path class="st5" d="M375.17,209.92c-26.2,0-47.5,21.3-47.5,47.5s21.3,47.5,47.5,47.5,47.5-21.3,47.5-47.5-21.3-47.5-47.5-47.5ZM390.47,259.82l-22.4,14.9c-1.9,1.3-4.5-.1-4.5-2.4v-29.8c0-2.3,2.6-3.7,4.5-2.4l22.4,14.9c1.7,1.1,1.7,3.7,0,4.8Z"/>
  </g>
  <path class="st8" d="M666.14,209.92c-26.2,0-47.5,21.3-47.5,47.5s21.3,47.5,47.5,47.5,47.5-21.3,47.5-47.5-21.3-47.5-47.5-47.5ZM691.67,261.18l-35.05,23.32c-2.97,2.03-7.04-.16-7.04-3.76v-46.63c0-3.6,4.07-5.79,7.04-3.76l35.05,23.32c2.66,1.72,2.66,5.79,0,7.51Z"/>
  <g class="st10">
    <path class="st11" d="M514.38,209.92c-26.2,0-47.5,21.3-47.5,47.5s21.3,47.5,47.5,47.5,47.5-21.3,47.5-47.5-21.3-47.5-47.5-47.5Z"/>
    <path class="st17" d="M540.76,261.9l-41.77,27.78c-3.54,2.42-8.39-.19-8.39-4.47v-55.56c0-4.29,4.85-6.9,8.39-4.47l41.77,27.78c3.17,2.05,3.17,6.9,0,8.95Z"/>
  </g>
</svg>